<?xml version="1.0" encoding="UTF-8"?>
<svg id="Layer_2" data-name="Layer 2" xmlns="http://www.w3.org/2000/svg" viewBox="0 0 333.82 451.32">
  <defs>
    <style>
      .cls-1 {
        fill: #272525;
      }

      .cls-2 {
        fill: #de97bd;
        stroke: #272525;
        stroke-miterlimit: 10;
        stroke-width: 3px;
      }
    </style>
  </defs>
  <path class="cls-2" d="M18.59,174.85c5.98-40.4,65.14-64.47,65.14-64.47,54.18-25.02,53.32-48.96,53.32-48.96,3.81-29.78-16.37-56.27-16.37-56.27,29.03-9.32,64.32,2.15,64.32,2.15,26.64,8.54,38.56,27.56,38.56,27.56,11.48,14.22,14.04,31.17,14.04,31.17,3.53,29.44-12.2,44.27-12.2,44.27-11.45,13.61-36.75,20.48-36.75,20.48-27.83,6.61-55.14,11.21-55.14,11.21-24.56,3.87-43.72,7.24-43.72,7.24-18.03,2.49-36.14,8.5-36.14,8.5-23.19,6.42-35.07,17.12-35.07,17.12Z"/>
  <path class="cls-2" d="M19.3,206.94c-4.2-18.45,28.7-27.76,28.7-27.76,7.2-2.83,35.14-6.6,35.14-6.6,24.42-2.43,48.27-4.52,48.27-4.52,23.39-2.23,52.07-6.92,52.07-6.92,29.53-5.21,45.61-14.93,45.61-14.93,18.25-8.4,29.95-25.03,29.95-25.03,21.46,13.68,24.07,15.42,24.07,15.42,17.31,10.39,27.66,31.83,27.66,31.83,8.29,20.63,4.82,38.52,4.82,38.52-23.07-.8-30.24,4.84-30.24,4.84-9.42,3.45-18.78-.63-18.78-.63-14.25-6.82-26.59-3.73-30.18-2.56-.59.19-1.15.43-1.71.7-13.34,6.52-23.9,2.4-27.55.52-1.25-.64-2.54-1.2-3.9-1.56-13.21-3.58-24.43,1.09-27.59,2.62-.81.39-1.65.7-2.52.92-9.64,2.48-16.3-.6-18.13-1.6-.43-.24-.89-.45-1.35-.61-13.66-4.94-23.82-1.57-23.82-1.57-3.27.78-8.35,2.91-9.61,3.44-.2.09-.41.17-.61.24-10.8,3.72-18.56-1.04-18.56-1.04-17.92-8.17-33.34-.48-33.34-.48-3.87,2.03-7.65,2.8-10.42,3.08-2.33.23-4.68-.02-6.92-.68-6.17-1.84-8.88-3-8.88-3-9.28-3.92-22.18-2.63-22.18-2.63Z"/>
  <path class="cls-2" d="M78.67,368.61L2.34,226.54c25.3-3.62,38.19,6.01,42.96,10.91,1.27,1.3,2.3,2.81,3.1,4.44,4.1,8.42,4.83,10.38,4.83,10.38l12.13,32.56,9.9,26.57,8.97,24.07,5.63,15.11h11.68l-32.03-91.89c-9.49-20.07,6.61-29.61,6.61-29.61,8.92-4.77,18.42-.6,18.42-.6,10.96,4.57,11.79,17.91,11.79,17.91l19.87,104.18h11.37l-16.34-99.33c-.3-1.8-.43-3.62-.34-5.44.98-20,19.97-19.33,19.97-19.33,8.48.76,13.25,5.58,15.85,9.91,1.92,3.19,2.89,6.86,2.96,10.59.53,26.64,1.55,103.6,1.55,103.6h11.26c.49-36.89,1.38-103.8,1.38-103.8,1.35-21.05,22.2-20.3,22.2-20.3,8.53,1.21,12.79,5.88,14.92,10.26,1.76,3.61,2.25,7.71,1.64,11.68-4.58,29.74-16.5,102.17-16.5,102.17h11.37c1.78-9.34,19.41-101.78,19.41-101.78,3.52-28.45,26.54-21.46,26.54-21.46,20.07,6.92,11.97,27.79,11.97,27.79l-33.28,95.46h11.68l34.37-92.28c8.43-33.98,35.64-31.77,35.64-31.77h17.5l-76.33,142.07H78.67Z"/>
  <g>
    <path class="cls-1" d="M78.49,406.19c-1.36,2.61-3.05,4.64-5.08,6.08-2.03,1.44-4.02,2.25-5.97,2.43-.29,4.45-.49,7.81-.62,10.08-.13,2.27-.19,3.9-.19,4.89,0,.91-.18,1.67-.53,2.28-.35.61-.8.92-1.36.92-.48,0-.88-.25-1.2-.76-.32-.5-.48-1.14-.48-1.91,0-.18,0-.32.02-.42,0-.18.06-.64.14-1.39.27-2.53.53-5.26.8-8.2.27-2.93.54-6.52.82-10.75.17-2.81.34-5.34.51-7.59.05-.73.18-2.63.38-5.69.2-3.06.33-5.31.39-6.73l-.18.06c-.44,0-.79-.29-1.06-.88-.27-.58-.41-1.31-.41-2.18,0-1.29.33-2.22.98-2.82.65-.59,1.61-.89,2.88-.89,2.01,0,3.93.41,5.76,1.23,1.83.82,3.36,2.3,4.6,4.45,1.24,2.14,1.86,5.05,1.86,8.73,0,3.42-.68,6.43-2.04,9.04ZM71.93,407.76c1.54-1.03,2.87-2.46,3.99-4.3,1.12-1.84,1.68-3.98,1.68-6.43,0-2.83-.7-4.93-2.1-6.32-1.4-1.38-3.46-2.08-6.19-2.08h-.15c-.37,4.98-.83,11.94-1.39,20.87v.06c1.24-.18,2.62-.78,4.17-1.81Z"/>
    <path class="cls-1" d="M94.57,397.34c.31.56.47,1.31.47,2.24s-.14,1.63-.41,2.22c-.27.59-.63.89-1.06.89-.52,0-.93.03-1.24.07-.31.05-.62.18-.95.39-.33.21-.66.55-1.01,1.02-.81,1.09-1.58,2.8-2.32,5.14-.74,2.34-1.32,4.89-1.74,7.63-.45,6.94-.67,11.29-.67,13.05,0,.85-.17,1.54-.51,2.08-.34.53-.77.8-1.3.8-.46,0-.84-.26-1.13-.77-.3-.51-.44-1.16-.44-1.93,0-.32.03-.76.09-1.33.06-.57.13-1.19.21-1.84.1-.77.21-1.68.32-2.73.27-2.49.57-6.05.92-10.67s.52-7.66.52-9.1c0-.69-.03-1.59-.09-2.7-.04-.91-.06-1.56-.06-1.96,0-.97.13-1.72.38-2.25.25-.53.62-.8,1.09-.8.63,0,1.07.42,1.3,1.27.23.85.35,2.09.35,3.71,0,.81-.06,2.21-.17,4.21l-.05.71c.86-3.34,1.82-5.88,2.9-7.6s2.2-2.59,3.38-2.59c.5,0,.91.28,1.22.84Z"/>
    <path class="cls-1" d="M97.92,432.19c-.31-.45-.46-1.12-.46-1.99,0-.42.05-1.18.15-2.3.1-1.12.16-1.77.18-1.97.07-.73.16-1.76.28-3.08.15-1.96.32-4.18.49-6.67.05-.65.1-1.34.15-2.08.05-.73.11-1.51.17-2.34.33-4.45.49-8.52.49-12.22,0-.91.16-1.65.47-2.21s.73-.84,1.24-.84c.48,0,.88.24,1.19.71.31.47.47,1.14.47,1.99,0,.53-.05,1.34-.14,2.42-.09,1.08-.2,2.23-.32,3.45-.03.34-.12,1.3-.28,2.89-.15,1.59-.28,3.12-.37,4.58-.21,3.26-.41,6.57-.58,9.93-.17,3.36-.26,5.88-.26,7.56,0,.79-.16,1.46-.48,2.02-.32.55-.75.83-1.28.83-.44,0-.81-.23-1.12-.68ZM100.44,391c-.25-.46-.38-1.19-.38-2.18,0-.36.02-.75.05-1.19.1-1.36.32-2.4.67-3.1.34-.7.8-1.05,1.37-1.05.52,0,.94.2,1.25.61.31.41.44.92.39,1.56-.03.38-.07.66-.12.86-.05.2-.08.32-.09.36-.09.28-.15.57-.18.89-.02.18-.04.52-.06,1.04l-.05,1.04c-.05.63-.21,1.1-.48,1.41s-.68.46-1.22.46c-.51,0-.89-.23-1.14-.7Z"/>
    <path class="cls-1" d="M129.78,399.15c.71,1.77,1.07,4.28,1.07,7.55,0,.71-.04,1.75-.11,3.1-.07,1.35-.14,2.54-.21,3.56-.07,1.02-.11,1.75-.14,2.21,0,.16-.1,1.46-.26,3.91-.12,2-.26,4.61-.4,7.83l-.12,2.73c-.05.91-.24,1.61-.58,2.11-.34.49-.78.74-1.33.74-.41,0-.75-.26-1.03-.79-.28-.52-.42-1.16-.42-1.91,0-.34.07-1.2.22-2.59s.28-2.54.41-3.42c.23-1.76.49-4.62.78-8.58.29-3.96.43-6.67.43-8.11,0-1.76-.17-3.19-.52-4.29-.35-1.1-.81-1.65-1.39-1.65-.63,0-1.3.57-2.01,1.71s-1.38,2.71-2.02,4.73c-.64,2.02-1.2,4.29-1.67,6.82l-.3,4.68c-.12,2-.26,4.61-.4,7.83l-.12,2.73c-.05.89-.24,1.59-.57,2.09-.33.5-.76.76-1.28.76-.46,0-.82-.26-1.1-.77s-.41-1.18-.41-1.99c0-.22.04-.65.12-1.29.08-.64.12-1.04.15-1.2.17-1.34.35-2.92.54-4.74.3-2.95.54-5.85.73-8.72s.29-5.1.29-6.7c0-1.76-.17-3.19-.52-4.29-.35-1.1-.8-1.65-1.36-1.65-.63,0-1.31.58-2.03,1.73-.72,1.16-1.41,2.76-2.07,4.82s-1.22,4.36-1.68,6.91c-.27,4.07-.49,8.26-.67,12.57-.08,1.7-.13,2.59-.14,2.67-.05.77-.24,1.4-.57,1.9-.33.49-.78.74-1.35.74-.41,0-.75-.26-1.03-.79s-.42-1.16-.42-1.91c0-.32.03-.76.09-1.33.06-.57.13-1.19.21-1.84.1-.77.21-1.68.32-2.73.27-2.49.57-6.05.92-10.67s.52-7.66.52-9.1c0-.67-.03-1.58-.09-2.73-.04-.95-.06-1.61-.06-1.99,0-.95.12-1.69.37-2.24.25-.54.58-.82,1.01-.82.64,0,1.09.42,1.36,1.27.26.85.39,2.11.39,3.77,0,.91-.04,2.06-.12,3.44.87-2.92,1.78-5.11,2.73-6.55.95-1.44,1.91-2.16,2.89-2.16,1.24,0,2.23.83,2.94,2.51.71,1.67,1.09,4.06,1.13,7.16.91-3.24,1.86-5.66,2.86-7.26,1-1.6,2.01-2.4,3.04-2.4,1.29,0,2.29.88,3,2.65Z"/>
    <path class="cls-1" d="M135.51,395.65c-.17-.33-.26-.76-.26-1.29,0-.45.07-.85.2-1.2.13-.34.27-.62.42-.83.15-.21.39-.52.73-.93.38-.45.66-.98.86-1.57.19-.59.29-1.35.29-2.28s-.06-1.67-.18-2.34l-.14-.68c-.08-.38-.14-.69-.18-.93s-.06-.56-.06-.93c0-1.05.2-1.9.59-2.55s.88-.98,1.46-.98,1.03.37,1.35,1.11c.32.74.47,1.69.47,2.83,0,2.06-.26,4.1-.77,6.14-.52,2.04-1.16,3.7-1.93,5-.77,1.29-1.49,1.94-2.17,1.94-.28,0-.5-.16-.67-.49Z"/>
    <path class="cls-1" d="M143.76,431.91c-1.05-.84-1.88-1.92-2.51-3.25-.63-1.32-.94-2.66-.94-4,0-.83.12-1.5.37-2.02.25-.51.56-.77.95-.77s.73.27,1.06.8c.33.53.65,1.24.98,2.1.36.97.72,1.7,1.08,2.18s.75.8,1.15.95.92.22,1.54.22c.66,0,1.28-.23,1.85-.68.57-.46,1.03-1.1,1.37-1.94.34-.84.51-1.81.51-2.92,0-.99-.16-1.84-.48-2.55-.32-.71-.75-1.33-1.29-1.87-.54-.53-1.25-1.11-2.11-1.72-1.5-1.07-2.7-2.32-3.61-3.77-.9-1.44-1.35-3.36-1.35-5.75,0-1.98.28-3.75.83-5.34.56-1.58,1.32-2.83,2.3-3.74s2.06-1.36,3.27-1.36c.99,0,1.93.29,2.83.88s1.62,1.35,2.16,2.3c.54.95.81,1.95.81,2.99,0,.83-.14,1.51-.41,2.05-.28.53-.63.8-1.06.8-.49,0-1.04-.56-1.64-1.69-.42-.77-.86-1.38-1.31-1.82s-1.02-.67-1.71-.67-1.24.2-1.75.61c-.51.41-.91.96-1.19,1.66-.29.7-.43,1.5-.43,2.39,0,1.15.32,2.14.96,2.98s1.52,1.69,2.64,2.56c1.17.91,2.13,1.78,2.87,2.61s1.35,1.88,1.84,3.16c.48,1.28.73,2.84.73,4.7,0,2.02-.3,3.88-.91,5.59-.61,1.71-1.44,3.07-2.5,4.08-1.06,1.01-2.24,1.51-3.54,1.51-1.18,0-2.3-.42-3.35-1.26Z"/>
    <path class="cls-1" d="M182.05,407.91c.86.97,1.55,2.23,2.08,3.78.53,1.55.8,3.33.8,5.32,0,3.58-.54,6.61-1.62,9.09-1.08,2.48-2.52,4.33-4.33,5.54-1.8,1.21-3.78,1.82-5.93,1.82-1.37,0-2.47-.35-3.32-1.05s-1.26-1.78-1.26-3.25c0-.51.05-1.42.15-2.73.1-1.3.22-2.75.35-4.33.53-6.13.92-11.34,1.16-15.62.26-4.59.54-10.38.86-17.38-.18.04-.3.06-.35.06-.43,0-.78-.24-1.06-.71-.28-.47-.41-1.14-.41-1.99,0-1.01.2-1.78.6-2.31s.92-.95,1.56-1.25c.51-.24,1.1-.42,1.77-.53.67-.12,1.32-.18,1.95-.18,2.03,0,3.79.52,5.29,1.56,1.5,1.04,2.64,2.48,3.43,4.31.79,1.84,1.19,3.94,1.19,6.31,0,2.91-.54,5.32-1.62,7.23-1.08,1.92-2.42,3.37-4.02,4.36.96.32,1.87.96,2.73,1.93ZM177.8,426.95c1.32-.87,2.36-2.14,3.12-3.81.76-1.67,1.14-3.67,1.14-6,0-1.42-.27-2.73-.82-3.93-.55-1.2-1.29-2.14-2.23-2.83-.94-.69-1.97-1.04-3.09-1.04-.87,0-1.96.06-3.26.18-.41,6.46-.76,12.63-1.06,18.5.28.1.54.16.79.19.25.03.57.04.96.04,1.65,0,3.14-.43,4.46-1.3ZM173.93,388.05c-.09,1.34-.29,4.66-.58,9.93l-.35,6.08c1.57-.14,3.06-.59,4.46-1.35,1.4-.76,2.53-1.83,3.4-3.22.87-1.38,1.3-3.02,1.3-4.92,0-1.38-.29-2.58-.87-3.59s-1.4-1.77-2.46-2.3c-1.06-.52-2.29-.79-3.7-.79-.36,0-.75.05-1.19.15Z"/>
    <path class="cls-1" d="M203.78,401.3c-.1.79-.16,1.26-.18,1.39-.18,1.44-.29,2.34-.32,2.7-.27,2.51-.57,6.12-.91,10.82s-.51,7.77-.51,9.19c0,.63.03,1.44.09,2.43.06.95.09,1.67.09,2.17,0,.85-.14,1.54-.41,2.08-.27.53-.63.8-1.08.8-.59,0-1.02-.4-1.29-1.2s-.41-1.86-.41-3.19c0-1.15.04-2.45.12-3.91-.76,2.65-1.64,4.74-2.66,6.29-1.02,1.54-2.05,2.31-3.08,2.31-1.11,0-2.07-.53-2.86-1.6s-1.4-2.64-1.81-4.73c-.42-2.08-.63-4.62-.63-7.6,0-3.99.4-7.74,1.2-11.24.8-3.5,1.87-6.29,3.22-8.38,1.35-2.08,2.83-3.13,4.42-3.13.82,0,1.53.3,2.15.9.62.6,1.16,1.52,1.62,2.74.08-1.13.28-1.98.61-2.55.32-.57.75-.86,1.29-.86.41,0,.76.27,1.05.8.29.53.44,1.19.44,1.96,0,.42-.05,1.02-.15,1.81ZM195.74,426.19c.82-1.31,1.58-3.06,2.3-5.23.72-2.17,1.29-4.48,1.71-6.91l.11-1.45c.23-3.36.4-6.24.5-8.63-.09.06-.19.09-.29.09-.27,0-.52-.21-.75-.62-.4-.73-.78-1.29-1.16-1.67s-.81-.58-1.31-.58c-1.04,0-2.04.87-2.99,2.61-.96,1.74-1.72,4.03-2.3,6.88-.58,2.85-.87,5.82-.87,8.92s.23,5.11.7,6.49c.46,1.38,1.17,2.08,2.11,2.08.68,0,1.43-.66,2.25-1.97Z"/>
    <path class="cls-1" d="M220.87,428.24c.16.41.24.92.24,1.53,0,.89-.14,1.68-.42,2.37-.28.69-.68,1.04-1.19,1.04-.79,0-1.66-.84-2.63-2.54-.96-1.69-1.81-3.8-2.55-6.34-.73-2.54-1.17-4.98-1.3-7.31-.76,1.86-1.39,3.57-1.89,5.13s-.86,2.89-1.06,3.97l-.06,2.13c-.02.83-.05,1.52-.08,2.08-.04.79-.22,1.42-.54,1.88-.32.46-.73.7-1.22.7-.43,0-.8-.28-1.11-.83-.31-.55-.47-1.2-.47-1.93,0-.63.13-1.99.38-4.06.2-1.72.36-3.16.46-4.33.17-2.06.4-5.37.69-9.93l.11-1.63c.52-8.04.86-13.81,1.02-17.3s.25-6.13.28-7.93c.02-.71.04-1.15.05-1.3.05-.77.23-1.38.54-1.84.31-.45.72-.68,1.22-.68.47,0,.85.28,1.15.83.3.55.44,1.22.44,1.99,0,.47-.03.94-.08,1.41-.05.46-.13,1.03-.23,1.71-.15,1.13-.26,2.01-.32,2.64-.35,4.17-.78,10.35-1.29,18.53-.22,3.58-.39,6.4-.5,8.48,2.04-6.52,3.88-11.51,5.52-14.97,1.64-3.46,2.95-5.19,3.94-5.19.5,0,.9.28,1.19.85s.44,1.28.44,2.15c0,.69-.16,1.33-.47,1.91s-.82,1.32-1.52,2.21c-.07.1-.27.36-.59.77s-.62.84-.9,1.28c-.68,1.07-1.28,2.14-1.78,3.23-.5,1.09-.98,2.31-1.42,3.68.02,2.29.31,4.42.88,6.37.57,1.96,1.25,3.63,2.04,5.01.79,1.38,1.56,2.45,2.32,3.2.31.3.54.65.7,1.05Z"/>
    <path class="cls-1" d="M237.22,422.57c.28.52.41,1.16.41,1.91,0,1.3-.38,2.63-1.13,3.99-.76,1.35-1.7,2.48-2.84,3.37-1.14.89-2.23,1.33-3.27,1.33-1.27,0-2.37-.53-3.32-1.6s-1.68-2.6-2.21-4.61-.78-4.37-.78-7.1c0-3.74.4-7.41,1.19-11.03.8-3.62,1.89-6.58,3.28-8.88s2.93-3.45,4.62-3.45c1.04,0,1.93.39,2.68,1.17.75.78,1.31,1.89,1.71,3.32.39,1.43.59,3.12.59,5.05,0,2.67-.54,4.98-1.62,6.94-1.08,1.96-2.48,3.46-4.19,4.51-1.71,1.05-3.49,1.62-5.35,1.72v.56c0,2.77.29,4.97.86,6.61.57,1.64,1.4,2.46,2.48,2.46.83,0,1.6-.43,2.33-1.29.73-.86,1.45-2.34,2.17-4.43.14-.43.33-.77.57-.99.24-.23.5-.34.8-.34.41,0,.75.26,1.03.79ZM230.35,403.36c-.77,1.29-1.42,2.99-1.96,5.08-.54,2.1-.92,4.33-1.16,6.7,1.22-.08,2.48-.53,3.76-1.36s2.35-1.95,3.19-3.35c.85-1.4,1.27-2.95,1.27-4.63,0-.83-.11-1.58-.33-2.24-.22-.66-.53-1.19-.93-1.57s-.85-.58-1.35-.58c-.9,0-1.73.65-2.5,1.94Z"/>
    <path class="cls-1" d="M253.08,397.34c.31.56.47,1.31.47,2.24s-.14,1.63-.41,2.22c-.27.59-.62.89-1.06.89-.52,0-.93.03-1.24.07-.31.05-.62.18-.95.39-.33.21-.66.55-1.01,1.02-.81,1.09-1.58,2.8-2.32,5.14-.74,2.34-1.32,4.89-1.74,7.63-.45,6.94-.67,11.29-.67,13.05,0,.85-.17,1.54-.5,2.08-.34.53-.77.8-1.3.8-.46,0-.84-.26-1.13-.77-.3-.51-.44-1.16-.44-1.93,0-.32.03-.76.09-1.33s.13-1.19.21-1.84c.1-.77.21-1.68.32-2.73.26-2.49.57-6.05.92-10.67.35-4.62.52-7.66.52-9.1,0-.69-.03-1.59-.09-2.7-.04-.91-.06-1.56-.06-1.96,0-.97.13-1.72.38-2.25.25-.53.62-.8,1.09-.8.63,0,1.07.42,1.3,1.27.23.85.35,2.09.35,3.71,0,.81-.06,2.21-.17,4.21l-.05.71c.86-3.34,1.82-5.88,2.9-7.6s2.2-2.59,3.38-2.59c.5,0,.91.28,1.22.84Z"/>
    <path class="cls-1" d="M270.7,397.46c.32.48.48,1.06.48,1.73,0,.75-.1,2.03-.29,3.82-.02.24-.07.7-.14,1.39-.07.69-.12,1.3-.15,1.84l-.12,1.96c-.33,4.92-.73,11.53-1.21,19.83-.31,5.28-.8,9.63-1.49,13.05-.68,3.42-1.59,5.98-2.73,7.68-1.13,1.7-2.51,2.55-4.13,2.55-1.07,0-2.09-.43-3.06-1.3-.97-.87-1.75-2.01-2.35-3.41-.6-1.4-.9-2.84-.9-4.3,0-.91.14-1.66.41-2.25s.62-.89,1.04-.89c.76,0,1.33.83,1.73,2.49.8,3.3,1.96,4.95,3.51,4.95,1.02,0,1.91-.86,2.67-2.58s1.37-4.02,1.82-6.89.76-6.06.93-9.56c.06-1.21.14-3.11.24-5.72-.82,3.62-1.79,6.41-2.93,8.38-1.14,1.97-2.33,2.95-3.58,2.95-.97,0-1.81-.44-2.53-1.32-.71-.88-1.26-2.14-1.64-3.78s-.57-3.56-.57-5.75c0-.95.06-2.38.17-4.3.11-1.92.29-4.54.52-7.86.15-2.29.28-4.4.38-6.33.1-1.93.15-3.34.15-4.25s.17-1.56.51-2.08c.34-.51.76-.77,1.26-.77.47,0,.85.25,1.13.74s.43,1.09.43,1.78c0,.61-.2,2.69-.6,6.23-.24,2.06-.5,5.05-.8,8.98-.3,3.93-.45,6.6-.45,8,0,1.92.19,3.37.56,4.34.37.98.92,1.47,1.63,1.47.88,0,1.75-.7,2.62-2.09.87-1.39,1.66-3.31,2.39-5.74.72-2.43,1.31-5.18,1.76-8.24l.03-.59c.02-.55.1-2.39.23-5.51s.2-5.39.2-6.79c0-.69.17-1.29.52-1.81.35-.51.73-.77,1.13-.77.48,0,.88.24,1.2.73Z"/>
  </g>
</svg>